<svg xmlns="http://www.w3.org/2000/svg" version="1.1" xmlns:xlink="http://www.w3.org/1999/xlink" xmlns:svgjs="http://svgjs.dev/svgjs" width="100%" height="100%" viewBox="0 0 1000 600"><rect width="1000" height="600" x="0" y="0" fill="#aa96da"/><g><circle r="166.66666666666666" cx="355.96386210123694" cy="378.1860187717083" fill="#c5fad5" transform="matrix(0.6603374911815368,0,0,0.660337491181537,0,50.269577739245946)"/><path d="M434.82952527364114 303.1860320380953L455.9041521393128 303.1860320380953L412.4713163184173 452.97707681421474L390.5608685572232 452.97707681421474L355.72504766170084 332.40991263511023L319.6354954228949 452.97707681421474L297.93400288558144 453.18603203809533L256.0235551243874 303.1860320380953L276.8593760199098 303.1860320380953L309.51609243782025 430.20095741122964L345.6354954228949 303.1860320380953L367.5459431840889 303.1860320380953L401.93400288558144 429.7531962171998L434.82952527364114 303.1860320380953Z " fill="#aa96da" transform="matrix(0.6603374911815368,0,0,0.660337491181537,0,50.269577739245946)"/><path d="M742.7586812536713 345.0922468466774L760.2218505433707 345.0922468466774L727.0472187600067 451.4343240336432L708.8025187459225 451.4343240336432L683.2006501884928 367.0290058000961L657.5987816310632 451.4343240336432L639.3540816169791 451.4343240336432L605.9638551510261 345.0922468466774L624.0199098178449 345.0922468466774L648.4629569563593 434.34844543847436L674.8463562381737 345.0922468466774L692.9024109049925 345.0922468466774L718.7198741450111 434.5640401210632L742.7586812536713 345.0922468466774ZM771.1093820141093 397.8859947456298Q771.1093820141093 381.5816468748456 777.6850198330701 369.26580063195576Q784.2876069873546 356.9499543890659 795.8488718411834 350.15872188751615Q807.3831873596885 343.3674893859664 821.5585377399075 343.3674893859664L821.5585377399075 343.3674893859664Q835.5182934375375 343.3674893859664 845.8129395311566 349.3771911631315Q856.0806362894521 355.38689294029655 861.1201619949672 364.4957682796768L861.1201619949672 364.4957682796768L861.1201619949672 345.0922468466774L878.9875713145208 345.0922468466774L878.9875713145208 451.4343240336432L861.1201619949672 451.4343240336432L861.1201619949672 431.6535119061133Q855.8919909421868 440.95103259275885 845.5164968425969 447.0685317112183Q835.141002743007 453.18603082967786 821.3429430573186 453.18603082967786L821.3429430573186 453.18603082967786Q807.1945420124232 453.18603082967786 795.741074499889 446.2061529808628Q784.2876069873546 439.19932579672417 777.6850198330701 426.5870368652746Q771.1093820141093 413.9747479338251 771.1093820141093 397.8859947456298L771.1093820141093 397.8859947456298ZM861.1201619949672 398.07464009289504Q861.1201619949672 386.0552365385649 856.2692816367174 377.1080572111263Q851.4184012784676 368.18782721901135 843.1719046694428 363.444744202056Q834.9254080604181 358.674711849777 825.0350019966531 358.674711849777L825.0350019966531 358.674711849777Q815.1445959328883 358.674711849777 807.0058966651579 363.33694686076154Q798.8402480621041 367.9991818717461 793.9893677038542 376.91941186386106Q789.1384873456045 385.839641855976 789.1384873456045 397.8859947456298L789.1384873456045 397.8859947456298Q789.1384873456045 410.0940436472252 793.9893677038542 419.1220709806346Q798.8402480621041 428.150098314044 807.0058966651579 432.8931813309994Q815.1445959328883 437.6632136832784 825.0350019966531 437.6632136832784L825.0350019966531 437.6632136832784Q834.9254080604181 437.6632136832784 843.1719046694428 432.8931813309994Q851.4184012784676 428.150098314044 856.2692816367174 419.1220709806346Q861.1201619949672 410.0940436472252 861.1201619949672 398.07464009289504L861.1201619949672 398.07464009289504ZM915.2613766601 345.0922468466774L948.4360084434642 435.129976162859L981.421994879563 345.0922468466774L1000.2595802707665 345.0922468466774L958.542009189818 451.4343240336432L937.9796663379034 451.4343240336432L896.2620952569549 345.0922468466774L915.2613766601 345.0922468466774ZM1114.7403567254626 394.1939358062952Q1114.7403567254626 399.2334615118103 1114.147471348343 404.8658725944448L1114.147471348343 404.8658725944448L1029.1762170730003 404.8658725944448Q1030.1463931446501 420.5773350881095 1039.9290018671206 429.41671707425365Q1049.7385599249149 438.2291497250742 1063.698315622545 438.2291497250742L1063.698315622545 438.2291497250742Q1075.1517831350793 438.2291497250742 1082.8053943669845 432.8931813309994Q1090.4859549342134 427.5572129369246 1093.5851284964288 418.63698294480963L1093.5851284964288 418.63698294480963L1112.6113592348975 418.63698294480963Q1108.3264149184433 433.97115474394377 1095.5254806397286 443.565118119149Q1082.7245463610138 453.18603082967786 1063.698315622545 453.18603082967786L1063.698315622545 453.18603082967786Q1048.5797385059996 453.18603082967786 1036.6411829576402 446.39479832812805Q1024.702627409281 439.6035658265783 1017.9113949077312 427.0721249010996Q1011.1201624061814 414.5676333109445 1011.1201624061814 398.07464009289504L1011.1201624061814 398.07464009289504Q1011.1201624061814 381.5816468748456 1017.7227495604659 369.1580032906613Q1024.3253367147504 356.73435970647705 1036.2369429277862 350.0509245462217Q1048.1754984761453 343.3674893859664 1063.698315622545 343.3674893859664L1063.698315622545 343.3674893859664Q1078.8438420744137 343.3674893859664 1090.4859549342134 349.9431272049273Q1102.128067794013 356.5457143592118 1108.4342122597377 368.1069792130405Q1114.7403567254626 379.64129473154566 1114.7403567254626 394.1939358062952L1114.7403567254626 394.1939358062952ZM1096.4956567113784 390.5018768669606Q1096.4956567113784 380.42282545593037 1092.0220670476592 373.14650491855565Q1087.5754267192635 365.8701843811809 1079.8948661520346 362.0703281005519Q1072.2412549201294 358.2974211552464 1062.9167848981601 358.2974211552464L1062.9167848981601 358.2974211552464Q1049.5499145776496 358.2974211552464 1040.1176472143861 366.84036045283085Q1030.712329186446 375.3832997504153 1029.3648624202656 390.5018768669606L1029.3648624202656 390.5018768669606L1096.4956567113784 390.5018768669606ZM1181.278265639456 345.0922468466774L1181.278265639456 359.6448879214269L1158.964215991507 359.6448879214269L1158.964215991507 451.4343240336432L1141.312401354542 451.4343240336432L1141.312401354542 359.6448879214269L1127.5412910041773 359.6448879214269L1127.5412910041773 345.0922468466774L1141.312401354542 345.0922468466774L1141.312401354542 337.5464329560666Q1141.312401354542 319.679023636513 1150.529074035217 311.43252702748833Q1159.7457467158915 303.18603041846364 1180.1194442205408 303.18603041846364L1180.1194442205408 303.18603041846364L1180.1194442205408 317.9273168404784Q1168.4773313607411 317.9273168404784 1163.734248343786 322.5087038454921Q1158.964215991507 327.0631415151823 1158.964215991507 337.5464329560666L1158.964215991507 337.5464329560666L1158.964215991507 345.0922468466774L1181.278265639456 345.0922468466774ZM1210.9764331660745 327.84467223956693Q1205.9369074605593 327.84467223956693 1202.4334938684901 324.3412586474976Q1198.9570296117445 320.8378450554283 1198.9570296117445 315.7983193499132L1198.9570296117445 315.7983193499132Q1198.9570296117445 310.7587936443981 1202.4334938684901 307.25538005232875Q1205.9369074605593 303.7789157955831 1210.9764331660745 303.7789157955831L1210.9764331660745 303.7789157955831Q1215.8273135243244 303.7789157955831 1219.2229297750991 307.25538005232875Q1222.6185460258741 310.7587936443981 1222.6185460258741 315.7983193499132L1222.6185460258741 315.7983193499132Q1222.6185460258741 320.8378450554283 1219.2229297750991 324.3412586474976Q1215.8273135243244 327.84467223956693 1210.9764331660745 327.84467223956693L1210.9764331660745 327.84467223956693ZM1201.8675578266943 345.0922468466774L1219.5193724636588 345.0922468466774L1219.5193724636588 451.4343240336432L1201.8675578266943 451.4343240336432L1201.8675578266943 345.0922468466774ZM1325.07991892624 451.4343240336432L1305.0835121161213 451.4343240336432L1279.858934253222 411.8457504432599L1255.604532461973 451.4343240336432L1237.1711871006237 451.4343240336432L1271.5046403029028 398.6675254700145L1237.1711871006237 345.0922468466774L1257.1675939107422 345.0922468466774L1282.3921717736416 384.4921750897955L1306.4309788823016 345.0922468466774L1324.864324243651 345.0922468466774L1290.719516388637 397.6973493983645L1325.07991892624 451.4343240336432Z " fill="#c5fad5" transform="matrix(0.6603374911815368,0,0,0.660337491181537,0,50.269577739245946)"/></g></svg>